<svg xmlns="http://www.w3.org/2000/svg" viewBox="0 0 120 80" fill="#1a75ff">
  <rect x="10" y="20" width="100" height="40" rx="6" ry="6" fill="#2ecc71" stroke="#2c3e50" stroke-width="2"/>
  
  <rect x="10" y="60" width="100" height="10" rx="2" ry="2" fill="#2c3e50" stroke="#2c3e50" stroke-width="2"/>
  
  <rect x="18" y="26" width="12" height="12" rx="1" ry="1" fill="#ecf0f1" stroke="#2c3e50" stroke-width="1"/>
  <rect x="34" y="26" width="12" height="12" rx="1" ry="1" fill="#ecf0f1" stroke="#2c3e50" stroke-width="1"/>
  <rect x="50" y="26" width="12" height="12" rx="1" ry="1" fill="#ecf0f1" stroke="#2c3e50" stroke-width="1"/>
  <rect x="66" y="26" width="12" height="12" rx="1" ry="1" fill="#ecf0f1" stroke="#2c3e50" stroke-width="1"/>
  <rect x="82" y="26" width="12" height="12" rx="1" ry="1" fill="#ecf0f1" stroke="#2c3e50" stroke-width="1"/>
  
  <rect x="20" y="42" width="15" height="18" rx="2" ry="2" fill="#ecf0f1" stroke="#2c3e50" stroke-width="1.5"/>
  <line x1="27.5" y1="42" x2="27.5" y2="60" stroke="#2c3e50" stroke-width="1"/>
  
  <rect x="65" y="42" width="25" height="18" rx="2" ry="2" fill="#ecf0f1" stroke="#2c3e50" stroke-width="1.5"/>
  <line x1="77.5" y1="42" x2="77.5" y2="60" stroke="#2c3e50" stroke-width="1"/>
  
  <circle cx="30" cy="70" r="8" fill="#2c3e50" stroke="#000000" stroke-width="1"/>
  <circle cx="30" cy="70" r="3" fill="#999999" stroke="#000000" stroke-width="0.5"/>
  <circle cx="90" cy="70" r="8" fill="#2c3e50" stroke="#000000" stroke-width="1"/>
  <circle cx="90" cy="70" r="3" fill="#999999" stroke="#000000" stroke-width="0.5"/>
  
  <path d="M10,35 Q10,20 20,20 L20,35 Z" fill="#d5f5e3" stroke="#2c3e50" stroke-width="1.5"/>
  
  <path d="M110,35 Q110,20 100,20 L100,35 Z" fill="#d5f5e3" stroke="#2c3e50" stroke-width="1.5"/>
  
  <rect x="10" y="45" width="4" height="4" rx="1" ry="1" fill="#f1c40f" stroke="#2c3e50" stroke-width="0.5"/>
  <rect x="106" y="45" width="4" height="4" rx="1" ry="1" fill="#3498db" stroke="#2c3e50" stroke-width="0.5"/>
  
  <rect x="45" y="12" width="30" height="8" rx="4" ry="4" fill="#3498db" stroke="#2c3e50" stroke-width="1"/>
  <text x="60" y="18.5" font-family="Arial" font-size="6" font-weight="bold" text-anchor="middle" fill="white">BUS</text>

  <path d="M60,75 L80,50 L70,50 L70,25 L50,25 L50,50 L40,50 Z" fill="#FF0000" stroke="#AA0000" stroke-width="2" />
</svg>