<svg xmlns="http://www.w3.org/2000/svg" viewBox="0 0 24 24" width="20px" height="20px">
  <title>Dependencia de Gobierno</title>
  <defs>
    <linearGradient id="gobiernoGradient" x1="0%" y1="0%" x2="0%" y2="100%">
      <stop offset="0%" style="stop-color:#37474F; stop-opacity:1"/>
      <stop offset="30%" style="stop-color:#455A64; stop-opacity:1"/>
      <stop offset="70%" style="stop-color:#37474F; stop-opacity:1"/>
      <stop offset="100%" style="stop-color:#263238; stop-opacity:1"/>
    </linearGradient>
    <linearGradient id="gobiernoAccent" x1="0%" y1="0%" x2="100%" y2="0%">
      <stop offset="0%" style="stop-color:#546E7A; stop-opacity:0.6"/>
      <stop offset="100%" style="stop-color:#263238; stop-opacity:0.8"/>
    </linearGradient>
    <radialGradient id="gobiernoHighlight" cx="50%" cy="30%" r="70%">
      <stop offset="0%" style="stop-color:#607D8B; stop-opacity:0.4"/>
      <stop offset="100%" style="stop-color:#263238; stop-opacity:0.1"/>
    </radialGradient>
  </defs>
  <path fill="url(#gobiernoGradient)" d="M13.032 2.336a1.75 1.75 0 0 0-2.064 0L3.547 7.75c-.977.712-.474 2.256.734 2.258H16V10h3v.007h.719c1.208-.002 1.71-1.546.734-2.258zM12 5.26a1 1 0 1 1 0 2a1 1 0 0 1 0-2m-.75 10.149q-.137.28-.2.594h-1.8v-4.997h2zm3.5-3.972A2.75 2.75 0 0 0 13 14v.05a3 3 0 0 0-.25.064v-3.108h2zM11 17.003V20.5H3.75a.75.75 0 0 1-.75-.75v-.5a2.25 2.25 0 0 1 2.25-2.248zm-5.5-1h2.25v-4.996H5.5zM14 15h-.5a1.5 1.5 0 0 0-1.5 1.5V18h2.5v-.25a.75.75 0 0 1 1.5 0V18h3v-.25a.75.75 0 0 1 1.5 0V18H23v-1.5a1.5 1.5 0 0 0-1.5-1.5H21v-1a1.75 1.75 0 0 0-1.75-1.75h-3.5A1.75 1.75 0 0 0 14 14zm1.5-1a.25.25 0 0 1 .25-.25h3.5a.25.25 0 0 1 .25.25v1h-4zm-2 9a1.5 1.5 0 0 1-1.5-1.5v-2h2.5v.75a.75.75 0 0 0 1.5 0v-.75h3v.75a.75.75 0 0 0 1.5 0v-.75H23v2a1.5 1.5 0 0 1-1.5 1.5z"/>
  <path fill="url(#gobiernoAccent)" d="M13.032 2.336a1.75 1.75 0 0 0-2.064 0L3.547 7.75c-.977.712-.474 2.256.734 2.258H16V10h3v.007h.719c1.208-.002 1.71-1.546.734-2.258z"/>
  <path fill="url(#gobiernoHighlight)" d="M13.032 2.336a1.75 1.75 0 0 0-2.064 0L3.547 7.75c-.977.712-.474 2.256.734 2.258H16V10h3v.007h.719c1.208-.002 1.71-1.546.734-2.258zM12 5.26a1 1 0 1 1 0 2a1 1 0 0 1 0-2"/>
  <circle fill="#78909C" cx="12" cy="6.26" r="0.8" opacity="0.7"/>
</svg>