<svg xmlns="http://www.w3.org/2000/svg" viewBox="0 0 128 128" width="20px" height="20px">
  <title>Hospedaje</title>
  <defs>
    <linearGradient id="hotelGradientBody" x1="0%" y1="0%" x2="0%" y2="100%">
      <stop offset="0%" style="stop-color:#3E2723;" />
      <stop offset="30%" style="stop-color:#5D4037;" />
      <stop offset="70%" style="stop-color:#4E342E;" />
      <stop offset="100%" style="stop-color:#2C1810;" />
    </linearGradient>
    <linearGradient id="hotelGradientRoof" x1="0%" y1="0%" x2="0%" y2="100%">
      <stop offset="0%" style="stop-color:#8B0000;" />
      <stop offset="50%" style="stop-color:#B71C1C;" />
      <stop offset="100%" style="stop-color:#4A0000;" />
    </linearGradient>
    <linearGradient id="hotelGradientWindow" x1="0%" y1="0%" x2="0%" y2="100%">
      <stop offset="0%" style="stop-color:#1565C0;" />
      <stop offset="50%" style="stop-color:#1976D2;" />
      <stop offset="100%" style="stop-color:#0A3F73;" />
    </linearGradient>
    <linearGradient id="hotelGradientDoor" x1="0%" y1="0%" x2="0%" y2="100%">
      <stop offset="0%" style="stop-color:#4E342E;" />
      <stop offset="100%" style="stop-color:#2C1810;" />
    </linearGradient>
    <radialGradient id="buildingHighlight" cx="50%" cy="20%" r="80%">
      <stop offset="0%" style="stop-color:#6D4C41; stop-opacity:0.4"/>
      <stop offset="100%" style="stop-color:#3E2723; stop-opacity:0.1"/>
    </radialGradient>
  </defs>
  
  <path fill="url(#hotelGradientBody)" d="m20.6 51.7l-10.7.01s-4.53-7.4-4.93-7.98c-.53-.75-1.72-.63-2.11-.57c-.67.09-.14 1.17.61 2.25s3.94 6.43 3.94 6.43v72.02h113.22l.09-71.78s3.98-6.54 4.37-7.19s.98-1.69.26-1.73c-.78-.04-1.68-.18-2.45 1.03c-.88 1.39-4.58 7.16-4.58 7.16h-10.8V40.17h-16.6s-.59-22.84-27.15-22.68c-26.55.17-26.25 22.66-26.25 22.66H20.74c0 .01-.14 11.35-.14 11.55z"/>
  <path fill="url(#buildingHighlight)" d="m20.6 51.7l-10.7.01s-4.53-7.4-4.93-7.98c-.53-.75-1.72-.63-2.11-.57c-.67.09-.14 1.17.61 2.25s3.94 6.43 3.94 6.43v72.02h113.22l.09-71.78s3.98-6.54 4.37-7.19s.98-1.69.26-1.73c-.78-.04-1.68-.18-2.45 1.03c-.88 1.39-4.58 7.16-4.58 7.16h-10.8V40.17h-16.6s-.59-22.84-27.15-22.68c-26.55.17-26.25 22.66-26.25 22.66H20.74c0 .01-.14 11.35-.14 11.55z"/>
  <path fill="url(#hotelGradientBody)" d="M9.86 56.19h10.59v44.28l-10.68.1zm13.28-11.52v44.38l81.98-.09v-44.1H85.81s1.38-22.41-21.45-22.65c-23.67-.26-21.91 22.28-21.91 22.28z"/>
  <path fill="url(#hotelGradientBody)" d="M118.25 56.56h-10.32v43.9h10.22z"/>
  <path fill="url(#hotelGradientRoof)" d="m3.68 43.11l17.03.21s-.07-10.03 0-10.78c.07-.74.67-.97 1.63-.97h11.52s4.21-19.72 30.67-19.58c25.08.13 29.89 19.36 29.89 19.36s11.22.15 11.96.15s1.11.59 1.11 1.41v10.26h16.78l-.8 1.93l-4.9 8.25l-109.24-.01z"/>
  <path fill="#6B1A00" d="M19.42 91.91s.07 5.86.12 6.83s-.11 1.89 2.06 1.91c2.13.02 84.69.04 85.76.04s2.28-.61 2.38-2.14c.1-1.52.05-6.43.05-6.43l-46.36-1.6z"/>
  <path fill="url(#hotelGradientWindow)" d="M46.9 37.64h8.64v10H46.9zm26.15 0h8.64v10h-8.64z M46.9 50.64h8.64v10H46.9zm26.15 0h8.64v10h-8.64z M46.9 63.64h8.64v10H46.9zm26.15 0h8.64v10h-8.64z"/>
  <path fill="url(#hotelGradientWindow)" d="M26.74 47.06h6.38v10.06h-6.38zm-.03 14.02h6.38v10.06h-6.38z M95.68 46.61h6.38v10.06h-6.38zm-.03 14.02h6.38v10.06h-6.38z"/>
  <path fill="#0A3F73" d="M46.4 37.14h9.64v11H46.4zm26.15 0h9.64v11h-9.64z M46.4 50.14h9.64v11H46.4zm26.15 0h9.64v11h-9.64z M46.4 63.14h9.64v11H46.4zm26.15 0h9.64v11h-9.64z" opacity="0.8"/>
  <path fill="url(#hotelGradientDoor)" d="m50.22 99.45l-.03 24.75H78.2l.03-25.51z"/>
  <path fill="#2C1810" d="M52.8 102.66v18.63h9.88v-18.57zm12.71.19h9.76l.25 18.44h-9.94z"/>
  <circle fill="#8D6E63" cx="55" cy="112" r="0.8" opacity="0.8"/>
  <circle fill="#8D6E63" cx="71" cy="112" r="0.8" opacity="0.8"/>
</svg>