<!-- museo.svg -->
<svg xmlns="http://www.w3.org/2000/svg" viewBox="0 0 24 24" width="20px" height="20px">
  <defs>
    <linearGradient id="museoGradient" x1="0%" y1="0%" x2="0%" y2="100%">
      <stop offset="0%" style="stop-color:#3E2723; stop-opacity:1" />
      <stop offset="50%" style="stop-color:#5D4037; stop-opacity:1" />
      <stop offset="100%" style="stop-color:#1C0E0A; stop-opacity:1" />
    </linearGradient>
    <radialGradient id="museoHighlight" cx="50%" cy="30%" r="70%">
      <stop offset="0%" style="stop-color:#6D4C41; stop-opacity:0.8" />
      <stop offset="100%" style="stop-color:#3E2723; stop-opacity:0.2" />
    </radialGradient>
  </defs>
  <path fill="url(#museoGradient)" d="M22 11V9L12 2L2 9v2h2v9H2v2h20v-2h-2v-9zm-4 9H6V9h12z"/>
  <path fill="url(#museoHighlight)" d="M22 11V9L12 2L2 9v2h2v9H2v2h20v-2h-2v-9zm-4 9H6V9h12z"/>
  <path fill="#D7CCC8" d="M6 20h12V9H6zm2-9h2l2 3l2-3h2v7h-2v-4l-2 3l-2-3v4H8z" opacity=".9"/>
  <circle fill="#8D6E63" cx="12" cy="6" r="1" opacity="0.6"/>
</svg>