<svg
  xmlns="http://www.w3.org/2000/svg"
  viewBox="0 0 64 64"
  width="20px"
  height="20px"
>
  <title>Naturaleza</title>
  <defs>
    <linearGradient id="follajeGradient" x1="50%" y1="0%" x2="50%" y2="100%">
      <stop offset="0%" style="stop-color: #2e7d32" />
      <stop offset="40%" style="stop-color: #388e3c" />
      <stop offset="80%" style="stop-color: #1b5e20" />
      <stop offset="100%" style="stop-color: #0d2818" />
    </linearGradient>
    <linearGradient id="troncoGradient" x1="50%" y1="0%" x2="50%" y2="100%">
      <stop offset="0%" style="stop-color: #4e342e" />
      <stop offset="50%" style="stop-color: #5d4037" />
      <stop offset="100%" style="stop-color: #3e2723" />
    </linearGradient>
    <radialGradient id="follajeHighlight" cx="40%" cy="20%" r="60%">
      <stop offset="0%" style="stop-color: #4caf50; stop-opacity: 0.8" />
      <stop offset="100%" style="stop-color: #1b5e20; stop-opacity: 0.2" />
    </radialGradient>
  </defs>
  <path fill="url(#troncoGradient)" d="M25 52.1h14V64H25z" />
  <path fill="#3E2723" d="M27 54.1h10V62H27z" opacity="0.6" />

  <path
    fill="url(#follajeGradient)"
    d="M32 34.9L2 55.1s14.5 3.4 30 3.4s30-3.4 30-3.4z"
  />
  <path
    fill="url(#follajeHighlight)"
    d="M32 34.9L2 55.1s14.5 3.4 30 3.4s30-3.4 30-3.4z"
    opacity="0.5"
  />

  <path
    fill="url(#follajeGradient)"
    d="M32 23.6L7 43.8s12.1 3.4 25 3.4s25-3.4 25-3.4z"
    style="opacity: 0.95"
  />
  <path
    fill="url(#follajeHighlight)"
    d="M32 23.6L7 43.8s12.1 3.4 25 3.4s25-3.4 25-3.4z"
    style="opacity: 0.4"
  />

  <path
    fill="url(#follajeGradient)"
    d="M32 12.3L12 32.5s9.7 3.4 20 3.4s20-3.4 20-3.4z"
    style="opacity: 0.9"
  />
  <path
    fill="url(#follajeHighlight)"
    d="M32 12.3L12 32.5s9.7 3.4 20 3.4s20-3.4 20-3.4z"
    style="opacity: 0.3"
  />

  <path
    fill="url(#follajeGradient)"
    d="M32 1L17 20.8s7.2 3.8 15 3.8s15-3.8 15-3.8z"
    style="opacity: 0.85"
  />
  <path
    fill="url(#follajeHighlight)"
    d="M32 1L17 20.8s7.2 3.8 15 3.8s15-3.8 15-3.8z"
    style="opacity: 0.25"
  />
</svg>
