<svg xmlns="http://www.w3.org/2000/svg" viewBox="0 0 512 512" width="20px" height="20px">
  <title>Icono de Restaurante</title>
  <defs>
    <linearGradient id="restauranteGradient" x1="0%" y1="0%" x2="0%" y2="100%">
      <stop offset="0%" style="stop-color:#4E342E; stop-opacity:1" />
      <stop offset="30%" style="stop-color:#6D4C41; stop-opacity:1" />
      <stop offset="70%" style="stop-color:#5D4037; stop-opacity:1" />
      <stop offset="100%" style="stop-color:#3E2723; stop-opacity:1" />
    </linearGradient>
    <linearGradient id="restauranteAccent" x1="0%" y1="0%" x2="100%" y2="100%">
      <stop offset="0%" style="stop-color:#8D6E63; stop-opacity:0.7" />
      <stop offset="100%" style="stop-color:#4E342E; stop-opacity:0.3" />
    </linearGradient>
  </defs>
  <path fill="url(#restauranteGradient)" d="M342.7 223.94h14.87a79.48 79.48 0 0 0 56.58-23.44L496 118l-22.22-22.4l-83.58 83.58l-17.37-17.37l83.58-83.59l-23-22.31l-83.27 83.26l-17.32-17.37l83.58-83.59L394 16l-82.5 81.85a79.5 79.5 0 0 0-23.44 56.59v14.86l-43.13 43.13L48 16C3.72 70.87 29.87 171.71 79.72 221.57l85.5 85.5c26.55 26.55 31.82 28.92 61.94 16.8c6.49-2.61 8.85-2.32 14.9 3.72l13 12.13c2.93 3 3 3.88 3 9.62v5.54c0 21.08 13.48 33.2 22.36 42.24L384 496l72-72l-156.43-156.93 Z" />
  <path fill="url(#restauranteAccent)" d="M342.7 223.94h14.87a79.48 79.48 0 0 0 56.58-23.44L496 118l-22.22-22.4l-83.58 83.58l-17.37-17.37l83.58-83.59l-23-22.31l-83.27 83.26l-17.32-17.37l83.58-83.59L394 16l-82.5 81.85a79.5 79.5 0 0 0-23.44 56.59v14.86l-43.13 43.13L48 16C3.72 70.87 29.87 171.71 79.72 221.57l85.5 85.5c26.55 26.55 31.82 28.92 61.94 16.8c6.49-2.61 8.85-2.32 14.9 3.72l13 12.13c2.93 3 3 3.88 3 9.62v5.54c0 21.08 13.48 33.2 22.36 42.24L384 496l72-72l-156.43-156.93 Z" />
  <path fill="url(#restauranteGradient)" d="M227.37 354.59c-29.82 6.11-48.11 11.74-83.08-23.23c-.56-.56-1.14-1.1-1.7-1.66l-19.5-19.5L16 416l80 80l144-144Z" />
</svg>